<?xml version="1.0" standalone="no"?>
<!DOCTYPE svg PUBLIC "-//W3C//DTD SVG 20010904//EN"
 "http://www.w3.org/TR/2001/REC-SVG-20010904/DTD/svg10.dtd">
<svg version="1.0" xmlns="http://www.w3.org/2000/svg"
 width="733.000000pt" height="733.000000pt" viewBox="0 0 733.000000 733.000000"
 preserveAspectRatio="xMidYMid meet">
<metadata>
Created by potrace 1.11, written by Peter Selinger 2001-2013
</metadata>
<g transform="translate(0.000000,733.000000) scale(0.100000,-0.100000)"
fill="#000000" stroke="none">
<path d="M3216 6574 c-242 -410 -445 -748 -452 -751 -6 -2 -389 93 -849 212
-460 119 -839 215 -841 213 -2 -2 87 -353 197 -779 110 -426 208 -806 218
-845 l18 -71 -753 -444 c-415 -244 -749 -448 -745 -452 5 -5 343 -206 752
-447 597 -352 743 -442 741 -457 -2 -10 -100 -391 -218 -847 -118 -456 -213
-830 -212 -832 3 -2 1626 415 1679 432 13 4 114 -161 460 -750 244 -415 446
-755 449 -755 3 0 201 333 440 741 239 407 440 746 445 754 8 10 172 -29 855
-206 465 -120 846 -217 848 -216 1 2 -94 376 -212 832 -118 456 -216 837 -218
847 -2 15 144 105 741 457 409 241 747 442 752 447 4 4 -331 208 -745 452
l-753 444 18 71 c10 39 108 419 218 845 110 426 199 777 197 779 -2 2 -381
-94 -841 -213 -460 -119 -843 -214 -849 -212 -7 3 -210 341 -452 751 -241 410
-441 746 -444 746 -3 0 -203 -336 -444 -746z m829 -144 c208 -353 375 -643
372 -646 -6 -6 -456 -124 -473 -124 -5 0 -72 36 -147 81 l-137 81 -137 -81
c-75 -45 -142 -81 -147 -81 -17 0 -467 118 -473 124 -7 6 746 1286 757 1286 4
0 178 -288 385 -640z m-2065 -540 c388 -100 708 -185 712 -188 5 -6 -224 -407
-244 -427 -4 -4 -75 -24 -158 -45 -83 -21 -153 -40 -155 -42 -1 -1 -19 -66
-39 -143 -20 -77 -40 -148 -44 -158 -8 -20 -424 -268 -433 -258 -3 3 -57 204
-119 446 -62 242 -146 567 -186 723 -60 233 -70 282 -56 278 9 -3 334 -87 722
-186z m1044 -270 c104 -27 190 -51 193 -53 2 -3 -59 -41 -136 -86 -129 -76
-151 -85 -288 -121 -81 -22 -153 -40 -160 -40 -6 0 34 79 90 175 56 96 104
174 107 175 3 0 90 -23 194 -50z m700 21 l49 -29 -57 -13 c-45 -10 -67 -10
-112 0 l-57 13 49 29 c27 16 56 29 64 29 8 0 37 -13 64 -29z m-1759 -1101
c-20 -79 -43 -157 -52 -174 -42 -83 -158 -267 -161 -257 -22 67 -100 387 -94
389 4 2 81 47 172 101 91 54 166 95 168 91 2 -4 -13 -72 -33 -150z m-365 -346
c33 -126 60 -236 60 -245 0 -9 -36 -78 -80 -152 l-80 -136 80 -135 c44 -74 80
-143 80 -153 -1 -22 -115 -461 -122 -468 -5 -5 -1272 736 -1290 753 -6 6 1283
772 1290 766 2 -1 30 -105 62 -230z m5408 -489 l73 -43 -33 -20 c-258 -156
-1262 -741 -1266 -737 -7 7 -121 445 -122 468 0 10 36 79 80 153 l80 135 -80
136 c-44 74 -80 142 -80 151 0 13 38 166 111 444 l9 36 578 -340 c317 -187
610 -359 650 -383z m-5283 6 c9 -37 11 -62 4 -89 -18 -69 -19 -69 -50 -19 -16
26 -29 51 -29 57 0 12 54 110 58 105 2 -2 9 -26 17 -54z m3945 -51 c0 -5 -13
-31 -29 -57 -20 -32 -32 -43 -35 -33 -14 41 -24 93 -21 103 2 7 9 32 15 56
l12 44 29 -51 c16 -28 29 -56 29 -62z m-51 -638 l49 -192 -171 -102 c-95 -55
-175 -102 -178 -104 -4 -2 13 69 36 159 40 154 46 169 126 305 46 78 85 139
86 135 2 -5 25 -95 52 -201z m272 -1053 c103 -398 187 -724 186 -725 -4 -2
-1448 374 -1452 378 -5 5 231 408 248 424 7 6 80 29 164 50 l152 39 36 147
c21 81 42 154 49 162 14 20 408 255 420 252 6 -1 94 -328 197 -727z m-1205 14
c-36 -67 -192 -326 -196 -327 -3 0 -92 22 -198 49 -148 38 -189 52 -180 61 7
6 69 44 138 85 115 67 138 76 285 115 88 24 161 43 163 43 1 1 -4 -11 -12 -26z
m-977 -255 c28 -6 51 -14 51 -17 0 -8 -88 -61 -100 -61 -13 0 -100 53 -100 61
0 5 53 21 92 28 3 0 29 -4 57 -11z m-137 -174 l87 -53 141 84 142 83 66 -18
c37 -10 141 -37 232 -60 91 -23 169 -45 173 -50 8 -7 -741 -1290 -753 -1290
-8 0 -755 1270 -755 1283 0 6 104 39 235 73 l235 61 55 -30 c30 -17 94 -55
142 -83z"/>
</g>
</svg>
